Patient4_TMGait_0pt3_02_right_15_EMG.mot
version=1
nRows=30
nColumns=33
inDegrees=no
endheader
time	1LAddLong	2LGlutMax	3LGlutMed	4LIliopsoas	5LSemiMemb	6LBicFemLong	7LRecFem	8LVastMed	9LVastLat	10LGasMed	11LTibAnt	12lTibPost	13LPeroneusLong	14LSol	15LExtDigLong	16LFlexDigLong	17RAddLong	18RGlutMax	19RGlutMed	20RIliopsoas	21RSemiMemb	22RBicFemLong	23RRecFem	24RVastMed	25RVastLat	26RGasMed	27RTibAnt	28RTibPost	29RPeroneusLong	30RSol	31RExtDigLong	32RFlexDigLong
28.1	-0.017242	-0.093689	0.033569	0.015717	-0.014343	-0.086517	-0.030975	-0.006866	0.079346	0.008545	-0.068512	0.014343	0.097656	0.059509	-0.014801	0.007629	-0.10956	0.089874	0.73135	-0.029755	0.010376	0.008698	0.1738	0.015869	-0.030823	0.001984	0.34424	0.003967	-0.088348	-0.006256	-0.006714	-0.006561
28.101	0.031738	-0.062256	0.02594	0.030975	-0.018311	0.1648	-0.057068	-0.005035	0.13443	-0.020294	-0.057526	0.02121	0.058136	0.1265	-0.12009	0.006409	-0.19684	0.12741	0.32791	0.23453	0.011749	0.009918	0.15411	0.059357	-0.029297	0.004578	0.41092	0.001373	-0.011749	0.034485	-0.005188	-0.006409
28.102	0.005646	-0.045319	-0.028992	-0.014954	-0.023956	0.12451	-0.080872	-0.001068	0.11414	-0.015106	-0.10529	0.023041	0.31006	0.13443	-0.18448	0.001831	-0.21118	0.15442	0.35019	0.15778	0.02594	-0.011902	0.19394	0.09201	-0.052185	-0.005951	0.38193	0.00061	-0.038605	0.063934	-0.006256	-0.007782
28.103	0.007935	-0.068665	0.097656	-0.011749	-0.00412	-0.052185	-0.16098	-0.009003	-0.052185	0.032959	0.078125	0.028534	0.16159	-0.025024	-0.16159	0.008698	-0.20828	0.16815	0.47592	-0.29709	0.032959	-0.030212	0.2243	0.14801	-0.047302	-0.00824	0.20828	0.001984	-0.16251	0.16449	-0.001068	-0.012817
28.104	0.036011	-0.098267	0.075378	-0.001831	-0.003815	-0.21866	-0.14145	-0.006714	-0.13153	0.029144	0.121	0.021515	-0.13534	0.030975	-0.12177	0.010071	-0.19547	0.10666	0.58823	-0.52155	0.059357	-0.024261	0.21851	0.16129	-0.056763	-0.014648	0.23636	0.002289	-0.12787	0.18021	-0.002136	-0.013275
28.105	0.009613	-0.067596	0.066986	0.013428	0.024719	-0.27466	-0.046082	-0.010986	-0.12268	0.089264	0.070801	0.032501	-0.2652	0.009766	0.001068	0.013885	-0.18402	0.084839	0.70709	-0.34637	0.059967	-0.038605	0.20706	0.13016	-0.061646	-0.012817	0.41473	0.008087	-0.04303	0.14084	-0.002441	-0.016937
28.106	0.017853	-0.085602	-0.02182	0.013885	0.040588	-0.26428	-0.054779	0.00061	-0.10147	0.11887	0.04303	0.028839	0.027161	0.028992	0.05661	0.022888	-0.1387	0.10956	0.77881	-0.16022	0.039368	-0.052643	0.22324	0.1088	-0.082092	-0.009308	0.54398	0.007629	0.019226	0.061188	-0.007172	-0.01358
28.107	0.019073	-0.031738	-0.058899	0.001068	0.053406	-0.034637	-0.060425	0.00351	-0.049744	0.19394	0.024719	0.021362	0.52048	0.21713	0.10925	0.019836	-0.11475	0.058899	0.71793	0.020905	0.027161	-0.069275	0.25467	0.071716	-0.091705	-0.004578	0.4155	0.006409	0.050659	-0.050049	-0.003357	-0.012207
28.108	0.029602	0.045624	-0.12787	0.00061	0.036926	0.25848	-0.055542	-0.007019	-0.055695	0.13306	-0.022125	0.024872	0.08667	0.27222	0.058289	0.021667	-0.098572	0.032806	0.7663	0.20187	0.018005	-0.066833	0.20294	0.066528	-0.064087	-0.00412	-0.15442	0.002899	0.096893	-0.083466	-0.002747	-0.010834
28.109	0.018158	0.045929	-0.13046	0.001678	0.014801	0.55847	-0.002441	-0.005951	-0.10101	0.075531	-0.031281	0.025482	-0.25925	0.21133	-0.079651	0.011749	-0.09552	-0.082703	0.66864	0.31036	0.029602	-0.072937	0.15121	0.033569	-0.06073	0.00473	-0.80719	-0.003815	0.10696	-0.099945	-0.001068	-0.010223
28.11	0.013275	0.11658	-0.045319	-0.002747	0.009155	0.78491	-0.013428	-0.002899	-0.12024	-0.050049	0.021667	0.020752	-0.03952	0.023193	-0.11643	-0.000458	-0.073853	-0.10712	0.52917	0.30228	0.016022	-0.061951	0.17349	0.001678	-0.062256	-0.007324	-0.3093	-0.000305	0.021515	-0.036316	0	-0.008545
28.111	0.009003	0.11276	-0.007477	-0.007477	0.000305	0.70664	-0.053864	0.002136	-0.11017	0.004425	0.067444	0.009613	-0.10162	-0.021667	0.045013	0.010223	-0.058289	-0.13825	0.62241	0.19775	0.009613	-0.051727	0.12116	-0.024872	-0.045929	-0.010986	0.018921	-0.001068	-0.039215	-0.035248	-0.004578	-0.013123
28.112	0.011597	0.090027	0.13275	-0.006409	-0.000916	0.3125	-0.044098	0.006561	-0.015259	0.016174	0.045471	0.019073	-0.10971	-0.036316	0.18173	-0.001221	-0.054932	-0.08606	0.56137	0.080109	-0.012207	-0.028381	0.12436	-0.056763	-0.040131	-0.001831	0.12772	0.000153	0.10223	-0.13184	0.006104	-0.005798
28.113	0.017395	0.002289	0.077972	0.006104	0.024261	-0.084686	-0.010223	0	0.10681	0.096741	0.046387	0.019836	0.13382	-0.070343	0.13153	-0.032959	-0.037384	-0.051117	0.44281	0.11856	-0.018921	0.007019	0.17532	-0.03952	-0.018463	0.003662	0.001831	0.003204	0.20447	-0.18723	-0.007782	-0.001831
28.114	0.013885	-0.074005	0.06073	0.020294	0.033875	-0.31601	-0.052338	0.002594	0.177	0.14786	0.004578	-0.044708	0.72159	-0.29312	0.082245	-0.10056	-0.036316	-0.058594	0.84869	0.037079	-0.012512	-0.000763	0.24719	-0.055084	-0.01297	-0.001831	-0.37903	0.004578	0.077362	-0.14145	-0.000916	0.001068
28.115	0.010071	-0.081635	0.022278	0.028229	0.00946	-0.10681	-0.12787	0.016479	0.22598	0.22095	0.013885	-0.033417	0.47775	-0.62698	0.18036	0	-0.031738	-0.041504	1.071	0.009003	-0.014191	0.011902	0.12009	-0.080261	-0.019989	-0.006866	-0.38162	-0.00061	-0.087433	-0.11108	-0.002747	-0.010376
28.116	-0.003052	-0.097351	-0.094147	0.014496	0.009918	-0.3038	-0.23743	0.019684	0.15823	0.19089	-0.003204	0.022736	-0.56503	-0.3154	0.24918	0.18219	-0.015259	-0.083618	0.5484	-0.02243	-0.009766	0.021667	-0.016937	-0.014038	-0.030365	-0.011292	-0.72296	-0.006409	-0.19791	-0.10574	-0.000153	-0.007782
28.117	0.009308	-0.1506	-0.050354	-0.02655	0.017548	-0.58258	-0.3923	0.010071	0.13138	0.14969	-0.016785	0.019379	-0.49316	-0.21194	0.10071	-0.13702	0.002136	-0.009918	0.51529	-0.10849	-0.011597	0.030212	0.0177	-0.02121	-0.021362	0.000305	-0.86716	-0.003662	-0.14801	-0.1268	-0.000305	-0.000305
28.118	0.009308	-0.14206	-0.18295	-0.007782	0.01358	-0.25055	-0.34073	-0.00412	0.13412	-0.1416	-0.025177	0.072937	-0.31403	-0.36789	-0.056305	0.22476	0.059509	0.043793	0.42557	-0.095673	-0.019531	0.016479	0.010529	-0.018768	-0.017395	0.002747	-0.50781	0.002136	-0.014191	-0.056763	-0.00061	-0.000916
28.119	0.005798	-0.15427	-0.23651	0.010834	0.009918	0.033569	-0.25314	-0.007629	0.046082	-0.042419	-0.036011	0.14648	0.23712	-0.49194	-0.18829	0.26611	0.10986	0.030518	0.35965	-0.099792	-0.024414	0.00824	0.084229	0.015869	-0.035248	0.010071	-0.39444	-0.005951	0.14206	-0.005798	-0.000916	-0.007935
28.12	0.002747	-0.1239	-0.28763	0.011292	-0.001373	0.14175	-0.23941	-0.002136	0.12421	-0.077515	-0.006866	0.11414	0.2034	-0.25146	-0.19134	-0.10513	0.15869	0.046387	0.56961	-0.085144	-0.027924	-0.028839	0.22553	-0.020905	-0.05188	0.006714	-0.096588	-0.002289	0.19211	0.00885	-0.002899	-0.007782
28.121	0.00824	-0.005188	0.085602	0.008087	0.006256	0.22598	-0.19486	0.006866	0.10956	-0.24979	-0.019226	0.011749	0.087891	0.020752	-0.08194	-0.11627	0.20889	0.037842	0.66788	-0.15381	-0.0354	-0.052185	0.21316	-0.02655	-0.055542	-0.001831	-0.27405	-0.000305	0.14587	0.19211	-0.00061	-0.009613
28.122	0.014343	0.036774	0.19348	0.00351	-0.004272	0.15839	-0.15991	0.006714	0.066223	-0.35736	-0.00351	-0.007019	-0.11017	-0.0177	-0.096283	-0.034332	0.14877	-0.017242	0.30319	-0.17929	-0.049133	-0.069275	0.20538	-0.065155	-0.063629	-0.005951	0.13245	-0.005493	0.053406	0.29999	-0.005493	-0.01358
28.123	0.015564	0.008392	0.040283	0.016785	-0.000153	0.050507	-0.14221	0.003662	0.13596	-0.23544	0.029907	0.005035	-0.083923	0.3154	-0.069733	-0.001068	0.061798	-0.10605	0.22095	-0.02243	-0.048523	-0.041504	0.21484	-0.013275	-0.032196	-0.015717	0.4689	-0.00824	-0.046844	0.18631	-0.00351	-0.010223
28.124	0.012207	-0.019989	0.10498	0.019989	0.002899	-0.38193	-0.10178	0.031586	0.18829	-0.076294	0.044098	0.001068	-0.11658	0.61127	0.003357	-0.000305	0.007782	-0.14252	0.066833	0.06012	-0.052643	-0.045929	0.25406	0.017242	-0.008087	-0.002289	0.48248	-0.002899	-0.017853	-0.050507	-0.003815	-0.0177
28.125	0.006409	-0.011444	0.19058	0.021973	0.007477	-0.62958	-0.11688	0.064545	0.12009	0.032196	0.047913	-0.005493	-0.10315	0.3157	0.005951	-0.000305	-0.040283	-0.15656	0.14038	0.093079	-0.046082	-0.03418	0.13657	0.022736	-0.002899	-0.004883	0.23483	-0.005493	-0.020447	-0.10544	0.005341	-0.021362
28.126	0.00885	-0.019836	0.1297	0.009308	0.019073	-0.52094	-0.13779	0.036621	-0.098572	0.091553	0.036926	-0.000153	0.14847	0.01709	0.01358	0.009308	-0.074768	-0.16235	0.52292	0.081482	-0.024414	-0.026703	-0.10971	0.002747	-0.029602	-0.002136	0.58197	0.000458	0.03952	-0.12009	-0.001678	-0.016785
28.127	-0.007172	0.074615	0.051727	0.010529	0.009918	-0.20233	-0.13168	0.042267	-0.20889	0.079651	0.002136	0.008392	-0.13992	-0.007935	0.068207	0.018768	-0.04364	-0.16953	0.67383	0.067596	-0.010834	0.005493	-0.12451	-0.005493	-0.016022	-0.002899	0.32577	-0.002594	0.049591	-0.074158	-0.002899	-0.021667
28.128	-0.013733	0.054169	0.020294	-0.000916	0.010529	0.20538	-0.10361	0.035706	-0.38086	0.081024	-0.036621	0.00946	-0.30853	0.051727	0.006714	0.019531	0.005951	-0.17349	0.49271	-0.007324	-0.022736	0.000153	-0.035858	0.028839	-0.035706	0.000763	-0.87128	-0.00061	0.090485	0.055237	-0.003815	-0.014191
28.129	-0.009155	0.038452	-0.074005	-0.009613	-0.012665	0.56885	-0.10437	-0.028534	-0.16068	-0.048828	-0.005798	0.010071	-0.38986	0.072327	-0.16312	0.018616	0.056305	-0.17487	0.59326	-0.046997	-0.025635	-0.000153	0.075378	0.042114	-0.018005	-0.001678	-1.2779	-0.007629	0.096893	0.1944	-0.000916	-0.010986
